<svg width="40" height="40" viewBox="0 0 40 40" fill="none" xmlns="http://www.w3.org/2000/svg">
<circle cx="20" cy="20" r="19.5" stroke="#538CDF"/>
<g clip-path="url(#clip0_1185_4649)">
<path fill-rule="evenodd" clip-rule="evenodd" d="M24.7531 11.6943C24.9869 11.6956 25.1755 11.8861 25.1743 12.12L25.1404 18.6239C25.1392 18.8577 24.9487 19.0463 24.7148 19.0451C24.481 19.0439 24.2924 18.8533 24.2936 18.6194L24.3275 12.1156C24.3287 11.8817 24.5192 11.6931 24.7531 11.6943Z" fill="#538CDF"/>
<path d="M26.614 19.2827H22.82C22.7862 19.2827 22.7523 19.2489 22.7523 19.215V16.8607C22.7523 16.8268 22.7862 16.793 22.82 16.793H26.614C26.6478 16.793 26.6817 16.8268 26.6817 16.8607V19.215C26.6817 19.2489 26.6478 19.2827 26.614 19.2827Z" fill="#538CDF"/>
<path d="M30.8652 25.5996L30.1877 27.649C30.1708 27.7337 30.103 27.7845 30.0184 27.7845H18.3486C18.247 27.7845 18.1793 27.6998 18.1793 27.6151V24.7358C18.1793 24.6342 18.0946 24.5664 18.0099 24.5664H12.6239C12.5053 24.5664 12.4206 24.685 12.4545 24.8035L13.4368 29.1733C13.4707 29.2411 13.5215 29.2919 13.6062 29.2919H16.2992H19.3141H31.8306C31.9323 29.2919 32 29.2072 32 29.1225V25.6504C32 25.5488 31.9153 25.481 31.8306 25.481H31.0346C30.9499 25.4641 30.8822 25.5149 30.8652 25.5996Z" fill="#538CDF"/>
<path d="M16.4516 21.9582C16.4516 21.7381 16.2992 21.5518 16.1129 21.5518H14.3514C14.1651 21.5518 14.0127 21.7381 14.0127 21.9582V23.3471H16.4347V21.9582H16.4516Z" fill="#538CDF"/>
<path d="M10.422 29.2752H8.22018C8.10162 29.2752 7.98306 29.1736 7.98306 29.0381V11.2371C8 11.1016 8.10162 11 8.23712 11H10.439C10.5575 11 10.6761 11.1016 10.6761 11.2371V29.055C10.6591 29.1736 10.5575 29.2752 10.422 29.2752Z" fill="#538CDF"/>
<path d="M23.3451 26.7004H19.5681C19.5342 26.7004 19.5004 26.6665 19.5004 26.6326V24.2953C19.5004 24.2614 19.5342 24.2275 19.5681 24.2275H23.362C23.3959 24.2275 23.4298 24.2614 23.4298 24.2953V26.6496C23.4129 26.6665 23.379 26.7004 23.3451 26.7004Z" fill="#538CDF"/>
<path d="M23.3451 22.9575H19.5681C19.5342 22.9575 19.5004 22.9237 19.5004 22.8898V20.5355C19.5004 20.5016 19.5342 20.4678 19.5681 20.4678H23.362C23.3959 20.4678 23.4298 20.5016 23.4298 20.5355V22.8898C23.4129 22.9237 23.379 22.9575 23.3451 22.9575Z" fill="#538CDF"/>
<path d="M28.7989 26.7004H25.0049C24.9711 26.7004 24.9372 26.6665 24.9372 26.6326V24.2953C24.9372 24.2614 24.9711 24.2275 25.0049 24.2275H28.7989C28.8327 24.2275 28.8666 24.2614 28.8666 24.2953V26.6496C28.8666 26.6665 28.8327 26.7004 28.7989 26.7004Z" fill="#538CDF"/>
<path d="M28.7989 22.9575H25.0049C24.9711 22.9575 24.9372 22.9237 24.9372 22.8898V20.5355C24.9372 20.5016 24.9711 20.4678 25.0049 20.4678H28.7989C28.8327 20.4678 28.8666 20.5016 28.8666 20.5355V22.8898C28.8666 22.9237 28.8327 22.9575 28.7989 22.9575Z" fill="#538CDF"/>
<path fill-rule="evenodd" clip-rule="evenodd" d="M13.0856 11.9717C13.2504 11.8058 13.5185 11.8049 13.6844 11.9697L16.1573 14.4256C16.3232 14.5904 16.3241 14.8585 16.1593 15.0244C15.9945 15.1903 15.7264 15.1912 15.5605 15.0264L13.0877 12.5705C12.9217 12.4058 12.9208 12.1377 13.0856 11.9717Z" fill="#538CDF"/>
<path fill-rule="evenodd" clip-rule="evenodd" d="M13.6854 11.9707C13.8508 12.1361 13.8508 12.4042 13.6854 12.5695L11.2296 15.0254C11.0642 15.1908 10.7961 15.1908 10.6307 15.0254C10.4654 14.8601 10.4654 14.592 10.6307 14.4266L13.0866 11.9707C13.252 11.8053 13.5201 11.8053 13.6854 11.9707Z" fill="#538CDF"/>
<path fill-rule="evenodd" clip-rule="evenodd" d="M18.7615 11.8682C18.9274 11.7034 19.1955 11.7042 19.3604 11.8701L22.0026 14.5292C22.1674 14.6951 22.1665 14.9632 22.0007 15.1281C21.8348 15.2929 21.5667 15.292 21.4018 15.1261L18.7596 12.467C18.5948 12.3011 18.5957 12.033 18.7615 11.8682Z" fill="#538CDF"/>
<path fill-rule="evenodd" clip-rule="evenodd" d="M19.3584 11.8682C19.5243 12.033 19.5252 12.3011 19.3604 12.467L16.7181 15.1261C16.5533 15.292 16.2852 15.2929 16.1193 15.1281C15.9534 14.9632 15.9526 14.6951 16.1174 14.5292L18.7596 11.8701C18.9245 11.7042 19.1926 11.7034 19.3584 11.8682Z" fill="#538CDF"/>
<path fill-rule="evenodd" clip-rule="evenodd" d="M24.6429 11.8682C24.8087 12.033 24.8096 12.3011 24.6448 12.467L22.0026 15.1261C21.8377 15.292 21.5696 15.2929 21.4038 15.1281C21.2379 14.9632 21.237 14.6951 21.4018 14.5292L24.044 11.8701C24.2089 11.7042 24.477 11.7034 24.6429 11.8682Z" fill="#538CDF"/>
<path fill-rule="evenodd" clip-rule="evenodd" d="M9.60904 12.1178C9.60904 11.8839 9.79862 11.6943 10.0325 11.6943H24.734C24.9678 11.6943 25.1574 11.8839 25.1574 12.1178V14.8955C25.1574 15.1293 24.9678 15.3189 24.734 15.3189H10.0325C9.79862 15.3189 9.60904 15.1293 9.60904 14.8955C9.60904 14.6616 9.79862 14.472 10.0325 14.472H24.3105V12.5412H10.0325C9.79862 12.5412 9.60904 12.3516 9.60904 12.1178Z" fill="#538CDF"/>
</g>
<defs>
<clipPath id="clip0_1185_4649">
<rect width="24" height="18.2752" fill="white" transform="translate(8 11)"/>
</clipPath>
</defs>
</svg>
